<svg class="diagram-root" style="background: #f5f6f6" xmlns="http://www.w3.org/2000/svg" xmlns:xlink="http://www.w3.org/1999/xlink"><style>.diagram-root { font-family: "Helvetica Neue", sans-serif; font-size: 12px; } .t { overflow: visible; } .t-bg { y: 40; fill: #fff;   } .th { fill: #005aa0;   } .tht { fill: #fff; font-size: 14px;  } .tf { fill: #323c46; overflow: visible; } .tf.pk { fill: #005aa0; font-weight: bold; } .tf.fk { font-weight: bold; } .ty { fill: #adb1b5; font-weight: normal; text-anchor: end; } .r { fill: transparent; stroke: #c3c3c3; stroke-width: 1; } .l { stroke: 1; } .i { fill: #c2c7ce; stroke: #c2c7ce; } .i.ix { fill: #afb3b6; stroke: #000; } .fa { fill: transparent; overflow: visible; } .fa .bg.hover { fill: #f7f7f7; } .c { cy: 12; r: 4; stroke: #d2d2dc; fill: #d2d2dc; } .hr { fill: transparent; stroke: #323c46; stroke-opacity: 0.035; stroke-width: 13; } .dc { stroke: #fa5a3c; fill: #fa5a3c; } .x { stroke: white; stroke-width: 1; } .hl .th { fill: #1b9bff; } .hl .tht {  } .fhl .bg { fill: #e7f4ff; } .fhls .bg {  } .r.hl { stroke: #1b9bff; } .dim { opacity: 0.25; }</style><g class="drawing-wrapper" transform="translate(-74.36363636363637, 227.27272727272734) scale(1,1)"><g class="rs"><path d="M 285.36 -140.27 m -1, 0 a 1,1 0 1,0 2,0 a 1,1 0 1,0 -2,0 M 285.36 -140.27 m -0.5, 0 a 0.5,0.5 0 1,0 1,0 a 0.5,0.5 0 1,0 -1,0  M285.36 -140.27 L285.36 -140.27 297.36 -140.27 M 285.36 -134.27 m -1, 0 a 1,1 0 1,0 2,0 a 1,1 0 1,0 -2,0 M 285.36 -134.27 m -0.5, 0 a 0.5,0.5 0 1,0 1,0 a 0.5,0.5 0 1,0 -1,0  M285.36 -134.27 L285.36 -134.27 292.36 -140.27 285.36 -146.27 M 285.36 -146.27 m -1, 0 a 1,1 0 1,0 2,0 a 1,1 0 1,0 -2,0 M 285.36 -146.27 m -0.5, 0 a 0.5,0.5 0 1,0 1,0 a 0.5,0.5 0 1,0 -1,0  M297.36 -140.27 Q 316.36 -140.27, 335.36 -42.46 T 373.36 55.36 M 385.36 55.36 m -1, 0 a 1,1 0 1,0 2,0 a 1,1 0 1,0 -2,0 M 385.36 55.36 m -0.5, 0 a 0.5,0.5 0 1,0 1,0 a 0.5,0.5 0 1,0 -1,0  M385.36 55.36 L385.36 55.36 373.36 55.36 M379.36 61.36 L379.36 61.36 379.36 49.36" id="h3370579715" class="r"></path><path d="M 685.45 -90.44999999999999 m -1, 0 a 1,1 0 1,0 2,0 a 1,1 0 1,0 -2,0 M 685.45 -90.44999999999999 m -0.5, 0 a 0.5,0.5 0 1,0 1,0 a 0.5,0.5 0 1,0 -1,0  M685.45 -90.44999999999999 L685.45 -90.44999999999999 673.45 -90.44999999999999 M 685.45 -84.44999999999999 m -1, 0 a 1,1 0 1,0 2,0 a 1,1 0 1,0 -2,0 M 685.45 -84.44999999999999 m -0.5, 0 a 0.5,0.5 0 1,0 1,0 a 0.5,0.5 0 1,0 -1,0  M685.45 -84.44999999999999 L685.45 -84.44999999999999 678.45 -90.44999999999999 685.45 -96.44999999999999 M 685.45 -96.44999999999999 m -1, 0 a 1,1 0 1,0 2,0 a 1,1 0 1,0 -2,0 M 685.45 -96.44999999999999 m -0.5, 0 a 0.5,0.5 0 1,0 1,0 a 0.5,0.5 0 1,0 -1,0  M673.45 -90.44999999999999 Q 648.43 -90.44999999999999, 623.41 -17.54 T 573.36 55.36 M 561.36 55.36 m -1, 0 a 1,1 0 1,0 2,0 a 1,1 0 1,0 -2,0 M 561.36 55.36 m -0.5, 0 a 0.5,0.5 0 1,0 1,0 a 0.5,0.5 0 1,0 -1,0  M561.36 55.36 L561.36 55.36 573.36 55.36 M567.36 61.36 L567.36 61.36 567.36 49.36" id="h1752220192" class="r"></path></g><g class="hrs"></g><g class="ts"><svg width="189" height="200" x="96.36" y="-197.27" id="h3889921393" class="t"><rect height="40" width="189" class="th"></rect><text x="13" y="25" class="tht">Users</text><rect height="160" width="189" class="t-bg" y="40"></rect><text x="13" y="61" class="tf pk">ID</text><path d="M7,14A2,2 0 0,1 5,12A2,2 0 0,1 7,10A2,2 0 0,1 9,12A2,2 0 0,1 7,14M12.65,10C11.83,7.67 9.61,6 7, 6A6, 6 0 0, 0 1, 12A6, 6 0 0, 0 7, 18C9.61, 18 11.83, 16.33 12.65, 14H17V18H21V14H23V10H12.65Z" class="i pk" transform="translate(161, 48) scale(0.65)"></path><text x="13" y="86" class="tf">name<tspan x="176" class="ty">string(16)</tspan></text><text x="13" y="111" class="tf">email<tspan x="176" class="ty">string(16)</tspan></text><text x="13" y="136" class="tf">password<tspan x="176" class="ty">hash_string(32)</tspan></text><text x="13" y="161" class="tf">created_at<tspan x="176" class="ty">date</tspan></text><text x="13" y="186" class="tf">deleted_at<tspan x="176" class="ty">date</tspan></text></svg><svg width="176" height="225" x="385.36" y="-26.64" id="h78672241" class="t"><rect height="40" width="176" class="th"></rect><text x="13" y="25" class="tht">Games</text><rect height="185" width="176" class="t-bg" y="40"></rect><text x="13" y="61" class="tf">ID</text><text x="13" y="86" class="tf fk">won<tspan x="163" class="ty">object</tspan></text><text x="13" y="111" class="tf">members<tspan x="163" class="ty">object(userid)</tspan></text><text x="13" y="136" class="tf">timemode<tspan x="163" class="ty">bool</tspan></text><text x="13" y="161" class="tf">started_at<tspan x="163" class="ty">date</tspan></text><text x="13" y="186" class="tf">ended_at<tspan x="163" class="ty">date</tspan></text><text x="13" y="211" class="tf">deleted_at<tspan x="163" class="ty">date</tspan></text></svg><svg width="93" height="100" x="685.45" y="-147.45" id="h3311390881" class="t"><rect height="40" width="93" class="th"></rect><text x="13" y="25" class="tht">Won</text><rect height="60" width="93" class="t-bg" y="40"></rect><text x="13" y="61" class="tf fk">user</text><text x="13" y="86" class="tf">points<tspan x="80" class="ty">int</tspan></text></svg></g></g></svg>